{"title":"HUNTSMAN WINTERS WAR (2016) 1080p Blu-ray x264 AAC 5.1-Hindi-DDR","uid":15446753,"size":2541632302,"categoryP":"video","categoryS":"hd___movies","magnet":"?xt=urn:btih:6124f60d587abd944f1c5cb9b09dc97748323ba2&amp;dn=HUNTSMAN+WINTERS+WAR+%282016%29+1080p+Blu-ray+x264+AAC+5.1-Hindi-DDR&amp;tr=udp%3A%2F%2Ftracker.leechers-paradise.org%3A6969&amp;tr=udp%3A%2F%2Fzer0day.ch%3A1337&amp;tr=udp%3A%2F%2Fopen.demonii.com%3A1337&amp;tr=udp%3A%2F%2Ftracker.coppersurfer.tk%3A6969&amp;tr=udp%3A%2F%2Fexodus.desync.com%3A6969","seeders":9,"leechers":8,"uploader":"SaM","files":3,"time":1469896796,"description":"** Huntsman Winter War**\r\n\r\n** 2016 **\r\n** HQ 1080p / Blu-Ray / x264 / DTS-5.1 Hindi**\r\n\r\n* Multi Subtitle(s) **\r\n\r\n\r\n\r\n[ SCREENS ]\r\n[ Transparency encode plz dont cuz shit will still remain shit if transparently encoded\r\nand anyone can just push the slider in x264 to veryslow or placebo and get transparency. ]\r\n\r\n\r\nSource Screenshots\r\n \nhttp://extraimago.com/image/w8t9 \nhttp://extraimago.com/image/w8tU \nhttp://extraimago.com/image/w8tM\r\n\r\nDDR Encode Screenshots\r\n \nhttp://extraimago.com/image/w8up \nhttp://extraimago.com/image/w8ur \nhttp://extraimago.com/image/w8uG\r\n\r\n[ Info ]\r\nSource : DDR Blu-ray BD50\r\nFormat : Matroska\r\nFile size : 2.36 GiB\r\nDuration : 2h 0mn\r\nOverall bit rate : 2 809 Kbps\r\nEncoded date : UTC 2016-07-30 01:42:16\r\n\r\nFormat : AVC\r\nFormat/Info : Advanced Video Codec\r\nFormat profile :   \r\nFormat settings, CABAC : Yes\r\nFormat settings, ReFrames : 5 frames\r\nCodec ID : V_MPEG4/ISO/AVC\r\nDuration : 2h 0mn\r\nBit rate : 2 616 Kbps\r\nWidth : 1 920 pixels\r\nHeight : 800 pixels\r\nDisplay aspect ratio : 2.40:1\r\nFrame rate mode : Constant\r\nFrame rate : 23.976 (24000/1001) fps\r\ncolor space : YUV\r\nChroma subsampling : 4:2:0\r\nBit depth : 8 bits\r\nScan type : Progressive\r\nBits/(Pixel*Frame) : 0.071\r\nStream size : 2.20 GiB (93%)\r\nLanguage : English\r\nDefault : Yes\r\nForced : No\r\ncolor range : Limited\r\ncolor primaries : BT.709\r\nTransfer characteristics : BT.709\r\nMatrix coefficients : BT.709\r\n\r\n\r\n\r\nAudio\r\nFormat : AAC\r\nFormat/Info : Advanced Audio Codec\r\nFormat profile : LC\r\nCodec ID : A_AAC\r\nDuration : 2h 0mn\r\nBit rate : 192 Kbps\r\nChannel(s) : 6 channels\r\nChannel positions : Front: L C R, Side: L R, LFE\r\nSampling rate : 48.0 KHz\r\nFrame rate : 46.875 fps (1024 spf)\r\nCompression mode : Lossy\r\nDelay relative to video : 9ms\r\nStream size : 165 MiB (7%)\r\nLanguage : Hindi\r\nDefault : Yes\r\nForced : No\r\n\r\n[ A DDR Exclusive HQ Encode !!!]","torrent":{"xt":"urn:btih:6124f60d587abd944f1c5cb9b09dc97748323ba2","amp;dn":"HUNTSMAN+WINTERS+WAR+%282016%29+1080p+Blu-ray+x264+AAC+5.1-Hindi-DDR","amp;tr":["udp%3A%2F%2Ftracker.leechers-paradise.org%3A6969","udp%3A%2F%2Fzer0day.ch%3A1337","udp%3A%2F%2Fopen.demonii.com%3A1337","udp%3A%2F%2Ftracker.coppersurfer.tk%3A6969","udp%3A%2F%2Fexodus.desync.com%3A6969"],"infoHash":"6124f60d587abd944f1c5cb9b09dc97748323ba2","infoHashBuffer":{"type":"Buffer","data":[97,36,246,13,88,122,189,148,79,28,92,185,176,157,201,119,72,50,59,162]},"announce":[],"urlList":[]}}